<svg width="117" height="23" viewBox="0 0 117 23" fill="none" xmlns="http://www.w3.org/2000/svg">
<path d="M10.5489 2.92705C10.8483 2.00574 12.1517 2.00574 12.4511 2.92705L13.8574 7.25532C13.9913 7.66734 14.3752 7.9463 14.8085 7.9463H19.3595C20.3282 7.9463 20.731 9.18592 19.9473 9.75532L16.2654 12.4303C15.9149 12.685 15.7683 13.1364 15.9021 13.5484L17.3085 17.8766C17.6078 18.798 16.5533 19.5641 15.7696 18.9947L12.0878 16.3197C11.7373 16.065 11.2627 16.065 10.9122 16.3197L7.23037 18.9947C6.44665 19.5641 5.39217 18.798 5.69153 17.8766L7.09787 13.5484C7.23174 13.1364 7.08508 12.685 6.7346 12.4303L3.05275 9.75532C2.26904 9.18592 2.67181 7.9463 3.64053 7.9463H8.19155C8.62477 7.9463 9.00873 7.66734 9.1426 7.25532L10.5489 2.92705Z" fill="#FFFB00"/>
<path d="M33.5489 2.92705C33.8483 2.00574 35.1517 2.00574 35.4511 2.92705L36.8574 7.25532C36.9913 7.66734 37.3752 7.9463 37.8085 7.9463H42.3595C43.3282 7.9463 43.731 9.18592 42.9473 9.75532L39.2654 12.4303C38.9149 12.685 38.7683 13.1364 38.9021 13.5484L40.3085 17.8766C40.6078 18.798 39.5533 19.5641 38.7696 18.9947L35.0878 16.3197C34.7373 16.065 34.2627 16.065 33.9122 16.3197L30.2304 18.9947C29.4467 19.5641 28.3922 18.798 28.6915 17.8766L30.0979 13.5484C30.2317 13.1364 30.0851 12.685 29.7346 12.4303L26.0527 9.75532C25.269 9.18592 25.6718 7.9463 26.6405 7.9463H31.1915C31.6248 7.9463 32.0087 7.66734 32.1426 7.25532L33.5489 2.92705Z" fill="#FFFB00"/>
<path d="M55.5489 2.92705C55.8483 2.00574 57.1517 2.00574 57.4511 2.92705L58.8574 7.25532C58.9913 7.66734 59.3752 7.9463 59.8085 7.9463H64.3595C65.3282 7.9463 65.731 9.18592 64.9473 9.75532L61.2654 12.4303C60.9149 12.685 60.7683 13.1364 60.9021 13.5484L62.3085 17.8766C62.6078 18.798 61.5533 19.5641 60.7696 18.9947L57.0878 16.3197C56.7373 16.065 56.2627 16.065 55.9122 16.3197L52.2304 18.9947C51.4467 19.5641 50.3922 18.798 50.6915 17.8766L52.0979 13.5484C52.2317 13.1364 52.0851 12.685 51.7346 12.4303L48.0527 9.75532C47.269 9.18592 47.6718 7.9463 48.6405 7.9463H53.1915C53.6248 7.9463 54.0087 7.66734 54.1426 7.25532L55.5489 2.92705Z" fill="#FFFB00"/>
<path d="M81.5489 2.92705C81.8483 2.00574 83.1517 2.00574 83.4511 2.92705L84.8574 7.25532C84.9913 7.66734 85.3752 7.9463 85.8085 7.9463H90.3595C91.3282 7.9463 91.731 9.18592 90.9473 9.75532L87.2654 12.4303C86.9149 12.685 86.7683 13.1364 86.9021 13.5484L88.3085 17.8766C88.6078 18.798 87.5533 19.5641 86.7696 18.9947L83.0878 16.3197C82.7373 16.065 82.2627 16.065 81.9122 16.3197L78.2304 18.9947C77.4467 19.5641 76.3922 18.798 76.6915 17.8766L78.0979 13.5484C78.2317 13.1364 78.0851 12.685 77.7346 12.4303L74.0527 9.75532C73.269 9.18592 73.6718 7.9463 74.6405 7.9463H79.1915C79.6248 7.9463 80.0087 7.66734 80.1426 7.25532L81.5489 2.92705Z" fill="#FFFB00"/>
<path d="M104.549 2.92705C104.848 2.00574 106.152 2.00574 106.451 2.92705L107.857 7.25532C107.991 7.66734 108.375 7.9463 108.808 7.9463H113.359C114.328 7.9463 114.731 9.18592 113.947 9.75532L110.265 12.4303C109.915 12.685 109.768 13.1364 109.902 13.5484L111.308 17.8766C111.608 18.798 110.553 19.5641 109.77 18.9947L106.088 16.3197C105.737 16.065 105.263 16.065 104.912 16.3197L101.23 18.9947C100.447 19.5641 99.3922 18.798 99.6915 17.8766L101.098 13.5484C101.232 13.1364 101.085 12.685 100.735 12.4303L97.0527 9.75532C96.269 9.18592 96.6718 7.9463 97.6405 7.9463H102.192C102.625 7.9463 103.009 7.66734 103.143 7.25532L104.549 2.92705Z" fill="#FFFB00"/>
</svg>
