<svg height="48" viewBox="0 0 48 48" width="48" xmlns="http://www.w3.org/2000/svg"><path d="m0 0h48v48h-48z" fill="none"/><path d="m11.4 21.7-1.1 2.8h2.2zm0 0-1.1 2.8h2.2zm31.6-13.7h-38a2.9 2.9 0 0 0 -3 3v26a3 3 0 0 0 3 3h38a3 3 0 0 0 3-3v-26a2.9 2.9 0 0 0 -3-3zm-17.1 20h-1.8v-5.8l-2.5 5.8h-1.6l-2.5-5.9v5.9h-3.6l-.7-1.8h-3.6l-.7 1.8h-1.9l3.2-8h2.4l3.1 7.7v-7.7h2.9l2.2 5.3 2.2-5.3h2.9zm15.1 0h-2.3l-2.1-2.7-2.2 2.7h-6.9v-8h7.1l2 2.5 2.1-2.5h2.3l-3.2 3.9zm-11.7-6.3v1.5h4v1.5h-4v1.6h4.2l2-2.4-1.8-2.2zm-19 2.8h2.2l-1.1-2.8z" fill="#030104"/></svg>